<mxfile host="app.diagrams.net" agent="Mozilla/5.0 (Windows NT 10.0; Win64; x64) AppleWebKit/537.36 (KHTML, like Gecko) Chrome/135.0.0.0 Safari/537.36" version="26.2.12">
  <diagram id="C5RBs43oDa-KdzZeNtuy" name="Page-1">
    <mxGraphModel grid="1" page="1" gridSize="10" guides="1" tooltips="1" connect="1" arrows="1" fold="1" pageScale="1" pageWidth="827" pageHeight="1169" math="0" shadow="0">
      <root>
        <mxCell id="WIyWlLk6GJQsqaUBKTNV-0" />
        <mxCell id="WIyWlLk6GJQsqaUBKTNV-1" parent="WIyWlLk6GJQsqaUBKTNV-0" />
        <mxCell id="rJo322jUPUT-9Uj5s9nA-3" value="Permissão de venda" style="ellipse;whiteSpace=wrap;html=1;fillColor=#fff2cc;strokeColor=#d6b656;" vertex="1" parent="WIyWlLk6GJQsqaUBKTNV-1">
          <mxGeometry x="10" y="130" width="140" height="40" as="geometry" />
        </mxCell>
        <mxCell id="rJo322jUPUT-9Uj5s9nA-7" value="" style="endArrow=none;html=1;rounded=0;entryX=1;entryY=1;entryDx=0;entryDy=0;exitX=0;exitY=0.25;exitDx=0;exitDy=0;" edge="1" parent="WIyWlLk6GJQsqaUBKTNV-1" source="rJo322jUPUT-9Uj5s9nA-11" target="rJo322jUPUT-9Uj5s9nA-12">
          <mxGeometry width="50" height="50" relative="1" as="geometry">
            <mxPoint x="183.18019484660522" y="117.32233047033617" as="sourcePoint" />
            <mxPoint x="122.67766952966372" y="115.60660171779818" as="targetPoint" />
          </mxGeometry>
        </mxCell>
        <mxCell id="rJo322jUPUT-9Uj5s9nA-8" value="" style="endArrow=none;html=1;rounded=0;entryX=0.5;entryY=1;entryDx=0;entryDy=0;exitX=0;exitY=0;exitDx=0;exitDy=0;" edge="1" parent="WIyWlLk6GJQsqaUBKTNV-1" source="rJo322jUPUT-9Uj5s9nA-11" target="rJo322jUPUT-9Uj5s9nA-13">
          <mxGeometry width="50" height="50" relative="1" as="geometry">
            <mxPoint x="215" y="110" as="sourcePoint" />
            <mxPoint x="155" y="90" as="targetPoint" />
          </mxGeometry>
        </mxCell>
        <mxCell id="rJo322jUPUT-9Uj5s9nA-9" value="" style="endArrow=none;html=1;rounded=0;exitX=0.5;exitY=0;exitDx=0;exitDy=0;entryX=0.5;entryY=1;entryDx=0;entryDy=0;" edge="1" parent="WIyWlLk6GJQsqaUBKTNV-1" source="rJo322jUPUT-9Uj5s9nA-11" target="rJo322jUPUT-9Uj5s9nA-14">
          <mxGeometry width="50" height="50" relative="1" as="geometry">
            <mxPoint x="246.81980515339455" y="117.32233047033651" as="sourcePoint" />
            <mxPoint x="210" y="90" as="targetPoint" />
          </mxGeometry>
        </mxCell>
        <mxCell id="rJo322jUPUT-9Uj5s9nA-10" value="" style="endArrow=none;html=1;rounded=0;entryX=0;entryY=0.5;entryDx=0;entryDy=0;exitX=1;exitY=0.5;exitDx=0;exitDy=0;" edge="1" parent="WIyWlLk6GJQsqaUBKTNV-1" source="rJo322jUPUT-9Uj5s9nA-3" target="rJo322jUPUT-9Uj5s9nA-11">
          <mxGeometry width="50" height="50" relative="1" as="geometry">
            <mxPoint x="390" y="330" as="sourcePoint" />
            <mxPoint x="170" y="135" as="targetPoint" />
          </mxGeometry>
        </mxCell>
        <mxCell id="rJo322jUPUT-9Uj5s9nA-11" value="Usuário" style="rounded=0;whiteSpace=wrap;html=1;fillColor=#d5e8d4;strokeColor=#82b366;" vertex="1" parent="WIyWlLk6GJQsqaUBKTNV-1">
          <mxGeometry x="182.5" y="130" width="75" height="40" as="geometry" />
        </mxCell>
        <mxCell id="rJo322jUPUT-9Uj5s9nA-12" value="Nome" style="ellipse;whiteSpace=wrap;html=1;fillColor=#fff2cc;strokeColor=#d6b656;" vertex="1" parent="WIyWlLk6GJQsqaUBKTNV-1">
          <mxGeometry x="70" y="90" width="50" height="30" as="geometry" />
        </mxCell>
        <mxCell id="rJo322jUPUT-9Uj5s9nA-13" value="Sobrenome" style="ellipse;whiteSpace=wrap;html=1;fillColor=#fff2cc;strokeColor=#d6b656;" vertex="1" parent="WIyWlLk6GJQsqaUBKTNV-1">
          <mxGeometry x="100" y="50" width="80" height="40" as="geometry" />
        </mxCell>
        <mxCell id="rJo322jUPUT-9Uj5s9nA-14" value="CPF" style="ellipse;whiteSpace=wrap;html=1;fillColor=#fff2cc;strokeColor=#d6b656;" vertex="1" parent="WIyWlLk6GJQsqaUBKTNV-1">
          <mxGeometry x="192.5" y="30" width="50" height="30" as="geometry" />
        </mxCell>
        <mxCell id="rJo322jUPUT-9Uj5s9nA-15" value="Possui" style="rhombus;whiteSpace=wrap;html=1;fillColor=#f8cecc;strokeColor=#b85450;" vertex="1" parent="WIyWlLk6GJQsqaUBKTNV-1">
          <mxGeometry x="320" y="130" width="80" height="40" as="geometry" />
        </mxCell>
        <mxCell id="rJo322jUPUT-9Uj5s9nA-16" value="" style="endArrow=none;html=1;rounded=0;entryX=1;entryY=0.5;entryDx=0;entryDy=0;exitX=0;exitY=0.5;exitDx=0;exitDy=0;" edge="1" parent="WIyWlLk6GJQsqaUBKTNV-1" source="rJo322jUPUT-9Uj5s9nA-15" target="rJo322jUPUT-9Uj5s9nA-11">
          <mxGeometry width="50" height="50" relative="1" as="geometry">
            <mxPoint x="390" y="330" as="sourcePoint" />
            <mxPoint x="440" y="280" as="targetPoint" />
          </mxGeometry>
        </mxCell>
        <mxCell id="rJo322jUPUT-9Uj5s9nA-17" value="Portifólio" style="rounded=0;whiteSpace=wrap;html=1;fillColor=#dae8fc;strokeColor=#6c8ebf;" vertex="1" parent="WIyWlLk6GJQsqaUBKTNV-1">
          <mxGeometry x="470" y="130" width="75" height="40" as="geometry" />
        </mxCell>
        <mxCell id="rJo322jUPUT-9Uj5s9nA-18" value="" style="endArrow=none;html=1;rounded=0;entryX=1;entryY=0.5;entryDx=0;entryDy=0;exitX=0;exitY=0.5;exitDx=0;exitDy=0;" edge="1" parent="WIyWlLk6GJQsqaUBKTNV-1" source="rJo322jUPUT-9Uj5s9nA-17" target="rJo322jUPUT-9Uj5s9nA-15">
          <mxGeometry width="50" height="50" relative="1" as="geometry">
            <mxPoint x="390" y="330" as="sourcePoint" />
            <mxPoint x="440" y="280" as="targetPoint" />
          </mxGeometry>
        </mxCell>
        <mxCell id="rJo322jUPUT-9Uj5s9nA-19" value="(1,1)" style="text;html=1;align=center;verticalAlign=middle;whiteSpace=wrap;rounded=0;" vertex="1" parent="WIyWlLk6GJQsqaUBKTNV-1">
          <mxGeometry x="290" y="155" width="37.5" height="20" as="geometry" />
        </mxCell>
        <mxCell id="rJo322jUPUT-9Uj5s9nA-20" value="(1,1)" style="text;html=1;align=center;verticalAlign=middle;whiteSpace=wrap;rounded=0;" vertex="1" parent="WIyWlLk6GJQsqaUBKTNV-1">
          <mxGeometry x="420" y="150" width="60" height="30" as="geometry" />
        </mxCell>
        <mxCell id="rJo322jUPUT-9Uj5s9nA-21" value="Fotos" style="ellipse;whiteSpace=wrap;html=1;fillColor=#fff2cc;strokeColor=#d6b656;" vertex="1" parent="WIyWlLk6GJQsqaUBKTNV-1">
          <mxGeometry x="420" y="90" width="50" height="30" as="geometry" />
        </mxCell>
        <mxCell id="rJo322jUPUT-9Uj5s9nA-23" value="Descrição" style="ellipse;whiteSpace=wrap;html=1;fillColor=#fff2cc;strokeColor=#d6b656;" vertex="1" parent="WIyWlLk6GJQsqaUBKTNV-1">
          <mxGeometry x="476.87" y="70" width="61.25" height="30" as="geometry" />
        </mxCell>
        <mxCell id="rJo322jUPUT-9Uj5s9nA-24" value="" style="endArrow=none;html=1;rounded=0;entryX=1;entryY=1;entryDx=0;entryDy=0;exitX=0.25;exitY=0;exitDx=0;exitDy=0;" edge="1" parent="WIyWlLk6GJQsqaUBKTNV-1" source="rJo322jUPUT-9Uj5s9nA-17" target="rJo322jUPUT-9Uj5s9nA-21">
          <mxGeometry width="50" height="50" relative="1" as="geometry">
            <mxPoint x="390" y="330" as="sourcePoint" />
            <mxPoint x="440" y="280" as="targetPoint" />
          </mxGeometry>
        </mxCell>
        <mxCell id="rJo322jUPUT-9Uj5s9nA-25" value="" style="endArrow=none;html=1;rounded=0;entryX=0.5;entryY=1;entryDx=0;entryDy=0;exitX=0.5;exitY=0;exitDx=0;exitDy=0;" edge="1" parent="WIyWlLk6GJQsqaUBKTNV-1" source="rJo322jUPUT-9Uj5s9nA-17" target="rJo322jUPUT-9Uj5s9nA-23">
          <mxGeometry width="50" height="50" relative="1" as="geometry">
            <mxPoint x="390" y="330" as="sourcePoint" />
            <mxPoint x="440" y="280" as="targetPoint" />
          </mxGeometry>
        </mxCell>
        <mxCell id="rJo322jUPUT-9Uj5s9nA-27" value="Anúncio" style="rounded=0;whiteSpace=wrap;html=1;fillColor=#e1d5e7;strokeColor=#9673a6;" vertex="1" parent="WIyWlLk6GJQsqaUBKTNV-1">
          <mxGeometry x="730" y="130" width="75" height="40" as="geometry" />
        </mxCell>
        <mxCell id="rJo322jUPUT-9Uj5s9nA-28" value="Possui" style="rhombus;whiteSpace=wrap;html=1;fillColor=#f8cecc;strokeColor=#b85450;" vertex="1" parent="WIyWlLk6GJQsqaUBKTNV-1">
          <mxGeometry x="600" y="130" width="80" height="40" as="geometry" />
        </mxCell>
        <mxCell id="rJo322jUPUT-9Uj5s9nA-29" value="" style="endArrow=none;html=1;rounded=0;entryX=1;entryY=0.5;entryDx=0;entryDy=0;exitX=0;exitY=0.5;exitDx=0;exitDy=0;" edge="1" parent="WIyWlLk6GJQsqaUBKTNV-1" source="rJo322jUPUT-9Uj5s9nA-28" target="rJo322jUPUT-9Uj5s9nA-17">
          <mxGeometry width="50" height="50" relative="1" as="geometry">
            <mxPoint x="390" y="330" as="sourcePoint" />
            <mxPoint x="440" y="280" as="targetPoint" />
          </mxGeometry>
        </mxCell>
        <mxCell id="rJo322jUPUT-9Uj5s9nA-30" value="" style="endArrow=none;html=1;rounded=0;entryX=1;entryY=0.5;entryDx=0;entryDy=0;exitX=0;exitY=0.5;exitDx=0;exitDy=0;" edge="1" parent="WIyWlLk6GJQsqaUBKTNV-1" source="rJo322jUPUT-9Uj5s9nA-27" target="rJo322jUPUT-9Uj5s9nA-28">
          <mxGeometry width="50" height="50" relative="1" as="geometry">
            <mxPoint x="390" y="330" as="sourcePoint" />
            <mxPoint x="440" y="280" as="targetPoint" />
          </mxGeometry>
        </mxCell>
        <mxCell id="rJo322jUPUT-9Uj5s9nA-31" value="(1,N)" style="text;html=1;align=center;verticalAlign=middle;whiteSpace=wrap;rounded=0;" vertex="1" parent="WIyWlLk6GJQsqaUBKTNV-1">
          <mxGeometry x="530" y="150" width="60" height="30" as="geometry" />
        </mxCell>
        <mxCell id="rJo322jUPUT-9Uj5s9nA-32" value="(1,N)" style="text;html=1;align=center;verticalAlign=middle;whiteSpace=wrap;rounded=0;" vertex="1" parent="WIyWlLk6GJQsqaUBKTNV-1">
          <mxGeometry x="680" y="150" width="60" height="30" as="geometry" />
        </mxCell>
        <mxCell id="rJo322jUPUT-9Uj5s9nA-33" value="Preço" style="ellipse;whiteSpace=wrap;html=1;fillColor=#fff2cc;strokeColor=#d6b656;" vertex="1" parent="WIyWlLk6GJQsqaUBKTNV-1">
          <mxGeometry x="270" y="390" width="61.25" height="30" as="geometry" />
        </mxCell>
        <mxCell id="rJo322jUPUT-9Uj5s9nA-35" value="Foto" style="ellipse;whiteSpace=wrap;html=1;fillColor=#fff2cc;strokeColor=#d6b656;" vertex="1" parent="WIyWlLk6GJQsqaUBKTNV-1">
          <mxGeometry x="690" y="70" width="61.25" height="30" as="geometry" />
        </mxCell>
        <mxCell id="rJo322jUPUT-9Uj5s9nA-36" value="Descrição" style="ellipse;whiteSpace=wrap;html=1;fillColor=#fff2cc;strokeColor=#d6b656;" vertex="1" parent="WIyWlLk6GJQsqaUBKTNV-1">
          <mxGeometry x="660" y="100" width="61.25" height="30" as="geometry" />
        </mxCell>
        <mxCell id="rJo322jUPUT-9Uj5s9nA-38" value="Serviço" style="rounded=0;whiteSpace=wrap;html=1;fillColor=#ffe6cc;strokeColor=#d79b00;" vertex="1" parent="WIyWlLk6GJQsqaUBKTNV-1">
          <mxGeometry x="182.5" y="340" width="75" height="40" as="geometry" />
        </mxCell>
        <mxCell id="rJo322jUPUT-9Uj5s9nA-39" value="Faz" style="rhombus;whiteSpace=wrap;html=1;fillColor=#f8cecc;strokeColor=#b85450;" vertex="1" parent="WIyWlLk6GJQsqaUBKTNV-1">
          <mxGeometry x="180" y="240" width="80" height="40" as="geometry" />
        </mxCell>
        <mxCell id="rJo322jUPUT-9Uj5s9nA-40" value="" style="endArrow=none;html=1;rounded=0;entryX=0.5;entryY=1;entryDx=0;entryDy=0;" edge="1" parent="WIyWlLk6GJQsqaUBKTNV-1" source="rJo322jUPUT-9Uj5s9nA-39" target="rJo322jUPUT-9Uj5s9nA-11">
          <mxGeometry width="50" height="50" relative="1" as="geometry">
            <mxPoint x="400" y="330" as="sourcePoint" />
            <mxPoint x="450" y="280" as="targetPoint" />
          </mxGeometry>
        </mxCell>
        <mxCell id="rJo322jUPUT-9Uj5s9nA-41" value="" style="endArrow=none;html=1;rounded=0;entryX=0.5;entryY=1;entryDx=0;entryDy=0;exitX=0.5;exitY=0;exitDx=0;exitDy=0;" edge="1" parent="WIyWlLk6GJQsqaUBKTNV-1" source="rJo322jUPUT-9Uj5s9nA-38" target="rJo322jUPUT-9Uj5s9nA-39">
          <mxGeometry width="50" height="50" relative="1" as="geometry">
            <mxPoint x="400" y="330" as="sourcePoint" />
            <mxPoint x="450" y="280" as="targetPoint" />
          </mxGeometry>
        </mxCell>
        <mxCell id="rJo322jUPUT-9Uj5s9nA-42" value="" style="endArrow=none;html=1;rounded=0;entryX=0.5;entryY=1;entryDx=0;entryDy=0;exitX=0.5;exitY=0;exitDx=0;exitDy=0;" edge="1" parent="WIyWlLk6GJQsqaUBKTNV-1" source="00OQnyMCNiGvxZlwMAmh-0" target="rJo322jUPUT-9Uj5s9nA-38">
          <mxGeometry width="50" height="50" relative="1" as="geometry">
            <mxPoint x="220" y="450" as="sourcePoint" />
            <mxPoint x="450" y="280" as="targetPoint" />
          </mxGeometry>
        </mxCell>
        <mxCell id="rJo322jUPUT-9Uj5s9nA-43" value="Descrição" style="ellipse;whiteSpace=wrap;html=1;fillColor=#fff2cc;strokeColor=#d6b656;" vertex="1" parent="WIyWlLk6GJQsqaUBKTNV-1">
          <mxGeometry x="121.25" y="295" width="61.25" height="30" as="geometry" />
        </mxCell>
        <mxCell id="rJo322jUPUT-9Uj5s9nA-44" value="" style="endArrow=none;html=1;rounded=0;entryX=1;entryY=1;entryDx=0;entryDy=0;exitX=0;exitY=0;exitDx=0;exitDy=0;" edge="1" parent="WIyWlLk6GJQsqaUBKTNV-1" source="rJo322jUPUT-9Uj5s9nA-38" target="rJo322jUPUT-9Uj5s9nA-43">
          <mxGeometry width="50" height="50" relative="1" as="geometry">
            <mxPoint x="400" y="330" as="sourcePoint" />
            <mxPoint x="450" y="280" as="targetPoint" />
          </mxGeometry>
        </mxCell>
        <mxCell id="rJo322jUPUT-9Uj5s9nA-46" value="" style="endArrow=none;html=1;rounded=0;entryX=1;entryY=1;entryDx=0;entryDy=0;exitX=0;exitY=0;exitDx=0;exitDy=0;" edge="1" parent="WIyWlLk6GJQsqaUBKTNV-1" source="rJo322jUPUT-9Uj5s9nA-27" target="rJo322jUPUT-9Uj5s9nA-36">
          <mxGeometry width="50" height="50" relative="1" as="geometry">
            <mxPoint x="720" y="260" as="sourcePoint" />
            <mxPoint x="770" y="210" as="targetPoint" />
            <Array as="points" />
          </mxGeometry>
        </mxCell>
        <mxCell id="rJo322jUPUT-9Uj5s9nA-48" value="" style="endArrow=none;html=1;rounded=0;entryX=0.5;entryY=1;entryDx=0;entryDy=0;exitX=0.25;exitY=0;exitDx=0;exitDy=0;" edge="1" parent="WIyWlLk6GJQsqaUBKTNV-1" source="rJo322jUPUT-9Uj5s9nA-27" target="rJo322jUPUT-9Uj5s9nA-35">
          <mxGeometry width="50" height="50" relative="1" as="geometry">
            <mxPoint x="750" y="360" as="sourcePoint" />
            <mxPoint x="800" y="310" as="targetPoint" />
          </mxGeometry>
        </mxCell>
        <mxCell id="rJo322jUPUT-9Uj5s9nA-49" value="id" style="ellipse;whiteSpace=wrap;html=1;fillColor=#fff2cc;strokeColor=#d6b656;" vertex="1" parent="WIyWlLk6GJQsqaUBKTNV-1">
          <mxGeometry x="227.5" y="60" width="40" height="20" as="geometry" />
        </mxCell>
        <mxCell id="rJo322jUPUT-9Uj5s9nA-51" value="" style="endArrow=none;html=1;rounded=0;exitX=0.75;exitY=0;exitDx=0;exitDy=0;entryX=0.5;entryY=1;entryDx=0;entryDy=0;" edge="1" parent="WIyWlLk6GJQsqaUBKTNV-1" source="rJo322jUPUT-9Uj5s9nA-11" target="rJo322jUPUT-9Uj5s9nA-49">
          <mxGeometry width="50" height="50" relative="1" as="geometry">
            <mxPoint x="400" y="330" as="sourcePoint" />
            <mxPoint x="260" y="90" as="targetPoint" />
          </mxGeometry>
        </mxCell>
        <mxCell id="rJo322jUPUT-9Uj5s9nA-52" value="(1,N)" style="text;html=1;align=center;verticalAlign=middle;whiteSpace=wrap;rounded=0;" vertex="1" parent="WIyWlLk6GJQsqaUBKTNV-1">
          <mxGeometry x="170" y="170" width="60" height="30" as="geometry" />
        </mxCell>
        <mxCell id="rJo322jUPUT-9Uj5s9nA-53" value="(1, N)" style="text;html=1;align=center;verticalAlign=middle;whiteSpace=wrap;rounded=0;" vertex="1" parent="WIyWlLk6GJQsqaUBKTNV-1">
          <mxGeometry x="210" y="315" width="60" height="30" as="geometry" />
        </mxCell>
        <mxCell id="00OQnyMCNiGvxZlwMAmh-0" value="Possui" style="rhombus;whiteSpace=wrap;html=1;fillColor=#f8cecc;strokeColor=#b85450;" vertex="1" parent="WIyWlLk6GJQsqaUBKTNV-1">
          <mxGeometry x="180" y="440" width="80" height="40" as="geometry" />
        </mxCell>
        <mxCell id="00OQnyMCNiGvxZlwMAmh-2" value="Venda" style="rounded=0;whiteSpace=wrap;html=1;fillColor=#ffe6cc;strokeColor=#d79b00;" vertex="1" parent="WIyWlLk6GJQsqaUBKTNV-1">
          <mxGeometry x="325" y="440" width="75" height="40" as="geometry" />
        </mxCell>
        <mxCell id="00OQnyMCNiGvxZlwMAmh-3" value="" style="endArrow=none;html=1;rounded=0;exitX=1;exitY=0.5;exitDx=0;exitDy=0;entryX=0;entryY=0.5;entryDx=0;entryDy=0;" edge="1" parent="WIyWlLk6GJQsqaUBKTNV-1" source="00OQnyMCNiGvxZlwMAmh-0" target="00OQnyMCNiGvxZlwMAmh-2">
          <mxGeometry width="50" height="50" relative="1" as="geometry">
            <mxPoint x="580" y="370" as="sourcePoint" />
            <mxPoint x="630" y="320" as="targetPoint" />
          </mxGeometry>
        </mxCell>
        <mxCell id="00OQnyMCNiGvxZlwMAmh-5" value="" style="endArrow=none;html=1;rounded=0;exitX=0.5;exitY=1;exitDx=0;exitDy=0;entryX=0.25;entryY=0;entryDx=0;entryDy=0;" edge="1" parent="WIyWlLk6GJQsqaUBKTNV-1" source="rJo322jUPUT-9Uj5s9nA-33" target="00OQnyMCNiGvxZlwMAmh-2">
          <mxGeometry width="50" height="50" relative="1" as="geometry">
            <mxPoint x="580" y="370" as="sourcePoint" />
            <mxPoint x="630" y="320" as="targetPoint" />
          </mxGeometry>
        </mxCell>
        <mxCell id="00OQnyMCNiGvxZlwMAmh-7" value="id" style="ellipse;whiteSpace=wrap;html=1;fillColor=#fff2cc;strokeColor=#d6b656;" vertex="1" parent="WIyWlLk6GJQsqaUBKTNV-1">
          <mxGeometry x="394" y="395" width="40" height="20" as="geometry" />
        </mxCell>
        <mxCell id="00OQnyMCNiGvxZlwMAmh-8" value="id" style="ellipse;whiteSpace=wrap;html=1;fillColor=#fff2cc;strokeColor=#d6b656;" vertex="1" parent="WIyWlLk6GJQsqaUBKTNV-1">
          <mxGeometry x="131.88" y="405" width="40" height="20" as="geometry" />
        </mxCell>
        <mxCell id="00OQnyMCNiGvxZlwMAmh-9" value="" style="endArrow=none;html=1;rounded=0;exitX=1;exitY=0;exitDx=0;exitDy=0;entryX=0;entryY=1;entryDx=0;entryDy=0;" edge="1" parent="WIyWlLk6GJQsqaUBKTNV-1" source="00OQnyMCNiGvxZlwMAmh-8" target="rJo322jUPUT-9Uj5s9nA-38">
          <mxGeometry width="50" height="50" relative="1" as="geometry">
            <mxPoint x="580" y="370" as="sourcePoint" />
            <mxPoint x="630" y="320" as="targetPoint" />
          </mxGeometry>
        </mxCell>
        <mxCell id="00OQnyMCNiGvxZlwMAmh-10" value="" style="endArrow=none;html=1;rounded=0;entryX=0.75;entryY=0;entryDx=0;entryDy=0;exitX=0.5;exitY=1;exitDx=0;exitDy=0;" edge="1" parent="WIyWlLk6GJQsqaUBKTNV-1" source="00OQnyMCNiGvxZlwMAmh-7" target="00OQnyMCNiGvxZlwMAmh-2">
          <mxGeometry width="50" height="50" relative="1" as="geometry">
            <mxPoint x="390" y="390" as="sourcePoint" />
            <mxPoint x="630" y="320" as="targetPoint" />
          </mxGeometry>
        </mxCell>
        <mxCell id="00OQnyMCNiGvxZlwMAmh-13" value="(1,1)" style="text;html=1;align=center;verticalAlign=middle;whiteSpace=wrap;rounded=0;" vertex="1" parent="WIyWlLk6GJQsqaUBKTNV-1">
          <mxGeometry x="210" y="375" width="60" height="30" as="geometry" />
        </mxCell>
        <mxCell id="00OQnyMCNiGvxZlwMAmh-14" value="(1,1)" style="text;html=1;align=center;verticalAlign=middle;whiteSpace=wrap;rounded=0;" vertex="1" parent="WIyWlLk6GJQsqaUBKTNV-1">
          <mxGeometry x="280" y="430" width="60" height="30" as="geometry" />
        </mxCell>
        <mxCell id="00OQnyMCNiGvxZlwMAmh-15" value="" style="endArrow=none;html=1;rounded=0;exitX=0.5;exitY=0;exitDx=0;exitDy=0;entryX=0.5;entryY=1;entryDx=0;entryDy=0;" edge="1" parent="WIyWlLk6GJQsqaUBKTNV-1" source="00OQnyMCNiGvxZlwMAmh-2" target="00OQnyMCNiGvxZlwMAmh-16">
          <mxGeometry width="50" height="50" relative="1" as="geometry">
            <mxPoint x="590" y="360" as="sourcePoint" />
            <mxPoint x="360" y="330" as="targetPoint" />
          </mxGeometry>
        </mxCell>
        <mxCell id="00OQnyMCNiGvxZlwMAmh-16" value="Realiza" style="rhombus;whiteSpace=wrap;html=1;fillColor=#f8cecc;strokeColor=#b85450;" vertex="1" parent="WIyWlLk6GJQsqaUBKTNV-1">
          <mxGeometry x="320" y="290" width="80" height="40" as="geometry" />
        </mxCell>
        <mxCell id="00OQnyMCNiGvxZlwMAmh-17" value="" style="endArrow=none;html=1;rounded=0;exitX=0.5;exitY=0;exitDx=0;exitDy=0;entryX=0.75;entryY=1;entryDx=0;entryDy=0;" edge="1" parent="WIyWlLk6GJQsqaUBKTNV-1" source="00OQnyMCNiGvxZlwMAmh-16" target="rJo322jUPUT-9Uj5s9nA-11">
          <mxGeometry width="50" height="50" relative="1" as="geometry">
            <mxPoint x="377.5" y="290" as="sourcePoint" />
            <mxPoint x="256.25" y="170" as="targetPoint" />
          </mxGeometry>
        </mxCell>
        <mxCell id="00OQnyMCNiGvxZlwMAmh-18" value="(1,1)" style="text;html=1;align=center;verticalAlign=middle;whiteSpace=wrap;rounded=0;" vertex="1" parent="WIyWlLk6GJQsqaUBKTNV-1">
          <mxGeometry x="310" y="405" width="60" height="30" as="geometry" />
        </mxCell>
        <mxCell id="00OQnyMCNiGvxZlwMAmh-19" value="(1,1)" style="text;html=1;align=center;verticalAlign=middle;whiteSpace=wrap;rounded=0;" vertex="1" parent="WIyWlLk6GJQsqaUBKTNV-1">
          <mxGeometry x="225" y="185" width="35" height="15" as="geometry" />
        </mxCell>
        <mxCell id="ABq3TiC7xBRhp3iJ4t2z-0" value="Permissão de admnistrador" style="ellipse;whiteSpace=wrap;html=1;fillColor=#fff2cc;strokeColor=#d6b656;" vertex="1" parent="WIyWlLk6GJQsqaUBKTNV-1">
          <mxGeometry x="10" y="180" width="140" height="40" as="geometry" />
        </mxCell>
        <mxCell id="ABq3TiC7xBRhp3iJ4t2z-1" value="" style="endArrow=none;html=1;rounded=0;exitX=1;exitY=0;exitDx=0;exitDy=0;entryX=0;entryY=0.75;entryDx=0;entryDy=0;" edge="1" parent="WIyWlLk6GJQsqaUBKTNV-1" source="ABq3TiC7xBRhp3iJ4t2z-0" target="rJo322jUPUT-9Uj5s9nA-11">
          <mxGeometry width="50" height="50" relative="1" as="geometry">
            <mxPoint x="390" y="340" as="sourcePoint" />
            <mxPoint x="440" y="290" as="targetPoint" />
          </mxGeometry>
        </mxCell>
        <mxCell id="ABq3TiC7xBRhp3iJ4t2z-2" value="Chat" style="rounded=0;whiteSpace=wrap;html=1;fillColor=#ffe6cc;strokeColor=#d79b00;" vertex="1" parent="WIyWlLk6GJQsqaUBKTNV-1">
          <mxGeometry x="480" y="530" width="75" height="40" as="geometry" />
        </mxCell>
        <mxCell id="ABq3TiC7xBRhp3iJ4t2z-3" value="" style="endArrow=none;html=1;rounded=0;exitX=0.5;exitY=0;exitDx=0;exitDy=0;entryX=0.5;entryY=1;entryDx=0;entryDy=0;" edge="1" parent="WIyWlLk6GJQsqaUBKTNV-1" target="00OQnyMCNiGvxZlwMAmh-2" source="ABq3TiC7xBRhp3iJ4t2z-4">
          <mxGeometry width="50" height="50" relative="1" as="geometry">
            <mxPoint x="112.5" y="360" as="sourcePoint" />
            <mxPoint x="175" y="360" as="targetPoint" />
          </mxGeometry>
        </mxCell>
        <mxCell id="ABq3TiC7xBRhp3iJ4t2z-4" value="Possui" style="rhombus;whiteSpace=wrap;html=1;fillColor=#f8cecc;strokeColor=#b85450;" vertex="1" parent="WIyWlLk6GJQsqaUBKTNV-1">
          <mxGeometry x="322.5" y="530" width="80" height="40" as="geometry" />
        </mxCell>
        <mxCell id="ABq3TiC7xBRhp3iJ4t2z-5" value="" style="endArrow=none;html=1;rounded=0;entryX=0;entryY=0.5;entryDx=0;entryDy=0;exitX=1;exitY=0.5;exitDx=0;exitDy=0;" edge="1" parent="WIyWlLk6GJQsqaUBKTNV-1" source="ABq3TiC7xBRhp3iJ4t2z-4" target="ABq3TiC7xBRhp3iJ4t2z-2">
          <mxGeometry width="50" height="50" relative="1" as="geometry">
            <mxPoint x="410" y="550" as="sourcePoint" />
            <mxPoint x="440" y="290" as="targetPoint" />
          </mxGeometry>
        </mxCell>
        <mxCell id="ABq3TiC7xBRhp3iJ4t2z-6" value="(1,1)" style="text;html=1;align=center;verticalAlign=middle;whiteSpace=wrap;rounded=0;" vertex="1" parent="WIyWlLk6GJQsqaUBKTNV-1">
          <mxGeometry x="451.87" y="557.5" width="25" height="15" as="geometry" />
        </mxCell>
        <mxCell id="ABq3TiC7xBRhp3iJ4t2z-8" value="(1,1)" style="text;html=1;align=center;verticalAlign=middle;whiteSpace=wrap;rounded=0;" vertex="1" parent="WIyWlLk6GJQsqaUBKTNV-1">
          <mxGeometry x="364" y="480" width="30" height="15" as="geometry" />
        </mxCell>
        <mxCell id="ABq3TiC7xBRhp3iJ4t2z-11" value="Mensagem" style="rounded=0;whiteSpace=wrap;html=1;fillColor=#ffe6cc;strokeColor=#d79b00;" vertex="1" parent="WIyWlLk6GJQsqaUBKTNV-1">
          <mxGeometry x="800" y="520" width="75" height="40" as="geometry" />
        </mxCell>
        <mxCell id="ABq3TiC7xBRhp3iJ4t2z-12" value="Possui" style="rhombus;whiteSpace=wrap;html=1;fillColor=#f8cecc;strokeColor=#b85450;" vertex="1" parent="WIyWlLk6GJQsqaUBKTNV-1">
          <mxGeometry x="620" y="530" width="80" height="40" as="geometry" />
        </mxCell>
        <mxCell id="ABq3TiC7xBRhp3iJ4t2z-13" value="" style="endArrow=none;html=1;rounded=0;exitX=0;exitY=0.5;exitDx=0;exitDy=0;entryX=1;entryY=0.5;entryDx=0;entryDy=0;" edge="1" parent="WIyWlLk6GJQsqaUBKTNV-1" source="ABq3TiC7xBRhp3iJ4t2z-12" target="ABq3TiC7xBRhp3iJ4t2z-2">
          <mxGeometry width="50" height="50" relative="1" as="geometry">
            <mxPoint x="390" y="350" as="sourcePoint" />
            <mxPoint x="440" y="300" as="targetPoint" />
          </mxGeometry>
        </mxCell>
        <mxCell id="ABq3TiC7xBRhp3iJ4t2z-15" value="(1,N)" style="text;html=1;align=center;verticalAlign=middle;whiteSpace=wrap;rounded=0;" vertex="1" parent="WIyWlLk6GJQsqaUBKTNV-1">
          <mxGeometry x="555" y="557.5" width="28.12" height="10" as="geometry" />
        </mxCell>
        <mxCell id="ABq3TiC7xBRhp3iJ4t2z-16" value="(1,N)" style="text;html=1;align=center;verticalAlign=middle;whiteSpace=wrap;rounded=0;" vertex="1" parent="WIyWlLk6GJQsqaUBKTNV-1">
          <mxGeometry x="745" y="550" width="60" height="30" as="geometry" />
        </mxCell>
        <mxCell id="ABq3TiC7xBRhp3iJ4t2z-18" value="id" style="ellipse;whiteSpace=wrap;html=1;fillColor=#fff2cc;strokeColor=#d6b656;" vertex="1" parent="WIyWlLk6GJQsqaUBKTNV-1">
          <mxGeometry x="875" y="475" width="40" height="20" as="geometry" />
        </mxCell>
        <mxCell id="ABq3TiC7xBRhp3iJ4t2z-19" value="Texto" style="ellipse;whiteSpace=wrap;html=1;fillColor=#fff2cc;strokeColor=#d6b656;" vertex="1" parent="WIyWlLk6GJQsqaUBKTNV-1">
          <mxGeometry x="749" y="480" width="56" height="20" as="geometry" />
        </mxCell>
        <mxCell id="ABq3TiC7xBRhp3iJ4t2z-20" value="Horário" style="ellipse;whiteSpace=wrap;html=1;fillColor=#fff2cc;strokeColor=#d6b656;" vertex="1" parent="WIyWlLk6GJQsqaUBKTNV-1">
          <mxGeometry x="805" y="460" width="60" height="20" as="geometry" />
        </mxCell>
        <mxCell id="ABq3TiC7xBRhp3iJ4t2z-21" value="" style="endArrow=none;html=1;rounded=0;exitX=0.5;exitY=0;exitDx=0;exitDy=0;entryX=0.5;entryY=1;entryDx=0;entryDy=0;" edge="1" parent="WIyWlLk6GJQsqaUBKTNV-1" source="ABq3TiC7xBRhp3iJ4t2z-11" target="ABq3TiC7xBRhp3iJ4t2z-20">
          <mxGeometry width="50" height="50" relative="1" as="geometry">
            <mxPoint x="410" y="350" as="sourcePoint" />
            <mxPoint x="460" y="300" as="targetPoint" />
          </mxGeometry>
        </mxCell>
        <mxCell id="ABq3TiC7xBRhp3iJ4t2z-22" value="" style="endArrow=none;html=1;rounded=0;exitX=0.75;exitY=0;exitDx=0;exitDy=0;entryX=0;entryY=1;entryDx=0;entryDy=0;" edge="1" parent="WIyWlLk6GJQsqaUBKTNV-1" source="ABq3TiC7xBRhp3iJ4t2z-11" target="ABq3TiC7xBRhp3iJ4t2z-18">
          <mxGeometry width="50" height="50" relative="1" as="geometry">
            <mxPoint x="410" y="350" as="sourcePoint" />
            <mxPoint x="460" y="300" as="targetPoint" />
          </mxGeometry>
        </mxCell>
        <mxCell id="ABq3TiC7xBRhp3iJ4t2z-23" value="" style="endArrow=none;html=1;rounded=0;exitX=0.25;exitY=0;exitDx=0;exitDy=0;entryX=1;entryY=1;entryDx=0;entryDy=0;" edge="1" parent="WIyWlLk6GJQsqaUBKTNV-1" source="ABq3TiC7xBRhp3iJ4t2z-11" target="ABq3TiC7xBRhp3iJ4t2z-19">
          <mxGeometry width="50" height="50" relative="1" as="geometry">
            <mxPoint x="410" y="350" as="sourcePoint" />
            <mxPoint x="460" y="300" as="targetPoint" />
          </mxGeometry>
        </mxCell>
        <mxCell id="ABq3TiC7xBRhp3iJ4t2z-25" value="Possui" style="rhombus;whiteSpace=wrap;html=1;fillColor=#f8cecc;strokeColor=#b85450;" vertex="1" parent="WIyWlLk6GJQsqaUBKTNV-1">
          <mxGeometry x="727.5" y="255" width="80" height="40" as="geometry" />
        </mxCell>
        <mxCell id="ABq3TiC7xBRhp3iJ4t2z-26" value="" style="endArrow=none;html=1;rounded=0;entryX=0.5;entryY=1;entryDx=0;entryDy=0;exitX=0.5;exitY=0;exitDx=0;exitDy=0;" edge="1" parent="WIyWlLk6GJQsqaUBKTNV-1" source="ABq3TiC7xBRhp3iJ4t2z-28" target="ABq3TiC7xBRhp3iJ4t2z-25">
          <mxGeometry width="50" height="50" relative="1" as="geometry">
            <mxPoint x="767.5" y="345" as="sourcePoint" />
            <mxPoint x="460" y="300" as="targetPoint" />
          </mxGeometry>
        </mxCell>
        <mxCell id="ABq3TiC7xBRhp3iJ4t2z-27" value="" style="endArrow=none;html=1;rounded=0;entryX=0.5;entryY=1;entryDx=0;entryDy=0;exitX=0.5;exitY=0;exitDx=0;exitDy=0;" edge="1" parent="WIyWlLk6GJQsqaUBKTNV-1" source="ABq3TiC7xBRhp3iJ4t2z-25" target="rJo322jUPUT-9Uj5s9nA-27">
          <mxGeometry width="50" height="50" relative="1" as="geometry">
            <mxPoint x="410" y="350" as="sourcePoint" />
            <mxPoint x="460" y="300" as="targetPoint" />
          </mxGeometry>
        </mxCell>
        <mxCell id="ABq3TiC7xBRhp3iJ4t2z-28" value="Comentario" style="rounded=0;whiteSpace=wrap;html=1;fillColor=#ffe6cc;strokeColor=#d79b00;" vertex="1" parent="WIyWlLk6GJQsqaUBKTNV-1">
          <mxGeometry x="730" y="330" width="75" height="40" as="geometry" />
        </mxCell>
        <mxCell id="ABq3TiC7xBRhp3iJ4t2z-31" value="" style="endArrow=none;html=1;rounded=0;exitX=0.5;exitY=0;exitDx=0;exitDy=0;entryX=1;entryY=0.5;entryDx=0;entryDy=0;" edge="1" parent="WIyWlLk6GJQsqaUBKTNV-1" source="ABq3TiC7xBRhp3iJ4t2z-28" target="5YYJP8TUYgn2K-aYpaNx-1">
          <mxGeometry width="50" height="50" relative="1" as="geometry">
            <mxPoint x="410" y="350" as="sourcePoint" />
            <mxPoint x="530" y="250" as="targetPoint" />
          </mxGeometry>
        </mxCell>
        <mxCell id="ABq3TiC7xBRhp3iJ4t2z-32" value="id" style="ellipse;whiteSpace=wrap;html=1;fillColor=#fff2cc;strokeColor=#d6b656;" vertex="1" parent="WIyWlLk6GJQsqaUBKTNV-1">
          <mxGeometry x="747.5" y="425" width="40" height="20" as="geometry" />
        </mxCell>
        <mxCell id="ABq3TiC7xBRhp3iJ4t2z-34" value="Horário" style="ellipse;whiteSpace=wrap;html=1;fillColor=#fff2cc;strokeColor=#d6b656;" vertex="1" parent="WIyWlLk6GJQsqaUBKTNV-1">
          <mxGeometry x="690" y="395" width="60" height="20" as="geometry" />
        </mxCell>
        <mxCell id="ABq3TiC7xBRhp3iJ4t2z-35" value="Texto" style="ellipse;whiteSpace=wrap;html=1;fillColor=#fff2cc;strokeColor=#d6b656;" vertex="1" parent="WIyWlLk6GJQsqaUBKTNV-1">
          <mxGeometry x="787.5" y="410" width="56" height="20" as="geometry" />
        </mxCell>
        <mxCell id="ABq3TiC7xBRhp3iJ4t2z-36" value="" style="endArrow=none;html=1;rounded=0;entryX=0.5;entryY=1;entryDx=0;entryDy=0;exitX=0.5;exitY=0;exitDx=0;exitDy=0;" edge="1" parent="WIyWlLk6GJQsqaUBKTNV-1" source="ABq3TiC7xBRhp3iJ4t2z-32" target="ABq3TiC7xBRhp3iJ4t2z-28">
          <mxGeometry width="50" height="50" relative="1" as="geometry">
            <mxPoint x="508" y="640" as="sourcePoint" />
            <mxPoint x="460" y="300" as="targetPoint" />
          </mxGeometry>
        </mxCell>
        <mxCell id="ABq3TiC7xBRhp3iJ4t2z-37" value="" style="endArrow=none;html=1;rounded=0;exitX=0.75;exitY=1;exitDx=0;exitDy=0;entryX=0.5;entryY=0;entryDx=0;entryDy=0;" edge="1" parent="WIyWlLk6GJQsqaUBKTNV-1" source="ABq3TiC7xBRhp3iJ4t2z-28" target="ABq3TiC7xBRhp3iJ4t2z-35">
          <mxGeometry width="50" height="50" relative="1" as="geometry">
            <mxPoint x="594.12" y="520" as="sourcePoint" />
            <mxPoint x="590" y="610" as="targetPoint" />
          </mxGeometry>
        </mxCell>
        <mxCell id="ABq3TiC7xBRhp3iJ4t2z-38" value="" style="endArrow=none;html=1;rounded=0;entryX=0.5;entryY=0;entryDx=0;entryDy=0;exitX=0.25;exitY=1;exitDx=0;exitDy=0;" edge="1" parent="WIyWlLk6GJQsqaUBKTNV-1" source="ABq3TiC7xBRhp3iJ4t2z-28" target="ABq3TiC7xBRhp3iJ4t2z-34">
          <mxGeometry width="50" height="50" relative="1" as="geometry">
            <mxPoint x="380" y="550" as="sourcePoint" />
            <mxPoint x="427.5" y="760" as="targetPoint" />
          </mxGeometry>
        </mxCell>
        <mxCell id="ABq3TiC7xBRhp3iJ4t2z-40" value="" style="endArrow=none;html=1;rounded=0;entryX=1;entryY=1;entryDx=0;entryDy=0;exitX=0;exitY=0;exitDx=0;exitDy=0;" edge="1" parent="WIyWlLk6GJQsqaUBKTNV-1" source="ABq3TiC7xBRhp3iJ4t2z-41" target="ABq3TiC7xBRhp3iJ4t2z-28">
          <mxGeometry width="50" height="50" relative="1" as="geometry">
            <mxPoint x="630" y="610" as="sourcePoint" />
            <mxPoint x="560" y="600" as="targetPoint" />
            <Array as="points" />
          </mxGeometry>
        </mxCell>
        <mxCell id="ABq3TiC7xBRhp3iJ4t2z-41" value="Nota" style="ellipse;whiteSpace=wrap;html=1;fillColor=#fff2cc;strokeColor=#d6b656;" vertex="1" parent="WIyWlLk6GJQsqaUBKTNV-1">
          <mxGeometry x="827" y="385" width="56" height="20" as="geometry" />
        </mxCell>
        <mxCell id="ABq3TiC7xBRhp3iJ4t2z-43" value="(1,N)" style="text;html=1;align=center;verticalAlign=middle;whiteSpace=wrap;rounded=0;" vertex="1" parent="WIyWlLk6GJQsqaUBKTNV-1">
          <mxGeometry x="760" y="170" width="60" height="30" as="geometry" />
        </mxCell>
        <mxCell id="ABq3TiC7xBRhp3iJ4t2z-45" value="(1,N)" style="text;html=1;align=center;verticalAlign=middle;whiteSpace=wrap;rounded=0;" vertex="1" parent="WIyWlLk6GJQsqaUBKTNV-1">
          <mxGeometry x="760" y="295" width="60" height="30" as="geometry" />
        </mxCell>
        <mxCell id="ABq3TiC7xBRhp3iJ4t2z-46" value="(1,N)" style="text;html=1;align=center;verticalAlign=middle;whiteSpace=wrap;rounded=0;" vertex="1" parent="WIyWlLk6GJQsqaUBKTNV-1">
          <mxGeometry x="667.5" y="325" width="60" height="30" as="geometry" />
        </mxCell>
        <mxCell id="ABq3TiC7xBRhp3iJ4t2z-50" value="id" style="ellipse;whiteSpace=wrap;html=1;fillColor=#fff2cc;strokeColor=#d6b656;" vertex="1" parent="WIyWlLk6GJQsqaUBKTNV-1">
          <mxGeometry x="747.5" y="55" width="40" height="20" as="geometry" />
        </mxCell>
        <mxCell id="ABq3TiC7xBRhp3iJ4t2z-51" value="" style="endArrow=none;html=1;rounded=0;entryX=0.5;entryY=1;entryDx=0;entryDy=0;exitX=0.5;exitY=0;exitDx=0;exitDy=0;" edge="1" parent="WIyWlLk6GJQsqaUBKTNV-1" source="rJo322jUPUT-9Uj5s9nA-27" target="ABq3TiC7xBRhp3iJ4t2z-50">
          <mxGeometry width="50" height="50" relative="1" as="geometry">
            <mxPoint x="410" y="390" as="sourcePoint" />
            <mxPoint x="460" y="340" as="targetPoint" />
          </mxGeometry>
        </mxCell>
        <mxCell id="ABq3TiC7xBRhp3iJ4t2z-52" value="Foto" style="ellipse;whiteSpace=wrap;html=1;fillColor=#fff2cc;strokeColor=#d6b656;" vertex="1" parent="WIyWlLk6GJQsqaUBKTNV-1">
          <mxGeometry x="171.88" y="80" width="40" height="20" as="geometry" />
        </mxCell>
        <mxCell id="ABq3TiC7xBRhp3iJ4t2z-53" value="" style="endArrow=none;html=1;rounded=0;entryX=0.5;entryY=1;entryDx=0;entryDy=0;exitX=0.25;exitY=0;exitDx=0;exitDy=0;" edge="1" parent="WIyWlLk6GJQsqaUBKTNV-1" source="rJo322jUPUT-9Uj5s9nA-11" target="ABq3TiC7xBRhp3iJ4t2z-52">
          <mxGeometry width="50" height="50" relative="1" as="geometry">
            <mxPoint x="200" y="110" as="sourcePoint" />
            <mxPoint x="460" y="340" as="targetPoint" />
          </mxGeometry>
        </mxCell>
        <mxCell id="xRU6eJvLZwDaeVb3W5bI-0" value="email" style="ellipse;whiteSpace=wrap;html=1;fillColor=#fff2cc;strokeColor=#d6b656;" vertex="1" parent="WIyWlLk6GJQsqaUBKTNV-1">
          <mxGeometry x="252.5" y="80" width="50" height="20" as="geometry" />
        </mxCell>
        <mxCell id="xRU6eJvLZwDaeVb3W5bI-2" value="" style="endArrow=none;html=1;rounded=0;exitX=1;exitY=0;exitDx=0;exitDy=0;entryX=0.5;entryY=1;entryDx=0;entryDy=0;" edge="1" parent="WIyWlLk6GJQsqaUBKTNV-1" source="rJo322jUPUT-9Uj5s9nA-11" target="xRU6eJvLZwDaeVb3W5bI-0">
          <mxGeometry width="50" height="50" relative="1" as="geometry">
            <mxPoint x="331.25" y="95" as="sourcePoint" />
            <mxPoint x="381.25" y="45" as="targetPoint" />
          </mxGeometry>
        </mxCell>
        <mxCell id="xRU6eJvLZwDaeVb3W5bI-3" value="senha" style="ellipse;whiteSpace=wrap;html=1;fillColor=#fff2cc;strokeColor=#d6b656;" vertex="1" parent="WIyWlLk6GJQsqaUBKTNV-1">
          <mxGeometry x="275" y="110" width="50" height="20" as="geometry" />
        </mxCell>
        <mxCell id="xRU6eJvLZwDaeVb3W5bI-4" value="" style="endArrow=none;html=1;rounded=0;entryX=0;entryY=1;entryDx=0;entryDy=0;exitX=1;exitY=0.25;exitDx=0;exitDy=0;" edge="1" parent="WIyWlLk6GJQsqaUBKTNV-1" source="rJo322jUPUT-9Uj5s9nA-11" target="xRU6eJvLZwDaeVb3W5bI-3">
          <mxGeometry width="50" height="50" relative="1" as="geometry">
            <mxPoint x="390" y="430" as="sourcePoint" />
            <mxPoint x="440" y="380" as="targetPoint" />
          </mxGeometry>
        </mxCell>
        <mxCell id="5YYJP8TUYgn2K-aYpaNx-1" value="Possui" style="rhombus;whiteSpace=wrap;html=1;fillColor=#f8cecc;strokeColor=#b85450;" vertex="1" parent="WIyWlLk6GJQsqaUBKTNV-1">
          <mxGeometry x="440" y="210" width="80" height="40" as="geometry" />
        </mxCell>
        <mxCell id="5YYJP8TUYgn2K-aYpaNx-2" value="" style="endArrow=none;html=1;rounded=0;exitX=0;exitY=0.5;exitDx=0;exitDy=0;entryX=1;entryY=1;entryDx=0;entryDy=0;" edge="1" parent="WIyWlLk6GJQsqaUBKTNV-1" source="5YYJP8TUYgn2K-aYpaNx-1" target="rJo322jUPUT-9Uj5s9nA-11">
          <mxGeometry width="50" height="50" relative="1" as="geometry">
            <mxPoint x="390" y="220" as="sourcePoint" />
            <mxPoint x="258" y="170" as="targetPoint" />
          </mxGeometry>
        </mxCell>
        <mxCell id="5YYJP8TUYgn2K-aYpaNx-3" value="(1,N)" style="text;html=1;align=center;verticalAlign=middle;whiteSpace=wrap;rounded=0;" vertex="1" parent="WIyWlLk6GJQsqaUBKTNV-1">
          <mxGeometry x="272.5" y="185" width="30" height="20" as="geometry" />
        </mxCell>
        <mxCell id="5YYJP8TUYgn2K-aYpaNx-6" value="" style="endArrow=none;html=1;rounded=0;exitX=0;exitY=0.5;exitDx=0;exitDy=0;entryX=1;entryY=0.5;entryDx=0;entryDy=0;" edge="1" parent="WIyWlLk6GJQsqaUBKTNV-1" source="ABq3TiC7xBRhp3iJ4t2z-11" target="ABq3TiC7xBRhp3iJ4t2z-12">
          <mxGeometry width="50" height="50" relative="1" as="geometry">
            <mxPoint x="620" y="450" as="sourcePoint" />
            <mxPoint x="507" y="450" as="targetPoint" />
          </mxGeometry>
        </mxCell>
      </root>
    </mxGraphModel>
  </diagram>
</mxfile>
